<svg xmlns="http://www.w3.org/2000/svg" xmlns:xlink="http://www.w3.org/1999/xlink" width="1640" zoomAndPan="magnify" viewBox="0 0 1230 693.000001" height="924" preserveAspectRatio="xMidYMid meet" version="1.0"><defs><g/><clipPath id="4b4f35fd53"><path d="M 0.886719 251 L 329.03125 251 L 329.03125 444 L 0.886719 444 Z M 0.886719 251 " clip-rule="nonzero"/></clipPath></defs><g clip-path="url(#4b4f35fd53)"><path fill="#ee316a" d="M 259.695312 276.589844 C 265.316406 294.941406 266.597656 314.144531 263.714844 332.703125 C 246.324219 336.507812 229.863281 343.710938 215.238281 353.925781 C 216.753906 336.097656 214.714844 318.15625 209.296875 301.148438 C 223.863281 289.351562 241.050781 280.863281 259.695312 276.589844 Z M 133.523438 297.664062 C 140.28125 280.132812 150.945312 264.148438 164.957031 251.066406 C 190.300781 274.746094 205.015625 308.730469 204.753906 343.503906 C 204.460938 377.605469 189.835938 410.800781 164.957031 434.011719 C 128.164062 399.648438 115.402344 344.792969 133.523438 297.664062 Z M 70.25 276.589844 C 88.894531 280.863281 106.054688 289.351562 120.648438 301.148438 C 115.199219 318.15625 113.191406 336.097656 114.675781 353.925781 C 100.082031 343.710938 83.59375 336.507812 66.199219 332.703125 C 63.316406 314.144531 64.597656 294.941406 70.25 276.589844 Z M 143.546875 441.328125 C 79.046875 452.804688 15.480469 410.300781 0.886719 346.253906 C 40.652344 333.960938 84.902344 342.773438 116.890625 369.496094 C 122.164062 395.664062 135.242188 420.195312 154.207031 438.957031 C 150.683594 439.894531 147.128906 440.683594 143.546875 441.328125 Z M 186.371094 441.328125 C 182.785156 440.683594 179.234375 439.894531 175.707031 438.929688 C 194.613281 420.078125 207.722656 395.753906 213.054688 369.496094 C 245.011719 342.773438 289.265625 333.960938 329.03125 346.253906 C 314.433594 410.300781 250.867188 452.804688 186.339844 441.328125 L 186.371094 441.328125 " fill-opacity="1" fill-rule="nonzero"/></g><g fill="#852d73" fill-opacity="1"><g transform="translate(378.890914, 401.13842)"><g><path d="M 58.628906 -89.253906 C 46.160156 -89.253906 36.097656 -83.785156 29.53125 -75.035156 L 29.53125 -87.503906 L 15.96875 -87.503906 L 15.96875 0 L 29.53125 0 L 29.53125 -47.472656 C 29.53125 -63.441406 42.660156 -75.691406 58.628906 -75.691406 C 61.253906 -75.691406 63.441406 -75.472656 65.410156 -74.816406 L 65.410156 -88.597656 C 63.441406 -89.035156 61.253906 -89.253906 58.628906 -89.253906 Z M 58.628906 -89.253906 "/></g></g></g><g fill="#852d73" fill-opacity="1"><g transform="translate(442.06932, 401.13842)"><g><path d="M 24.5 -103.910156 C 29.53125 -103.910156 33.90625 -108.070312 33.90625 -113.101562 C 33.90625 -118.570312 29.53125 -122.507812 24.5 -122.507812 C 19.25 -122.507812 14.875 -118.570312 14.875 -113.101562 C 14.875 -108.070312 19.25 -103.910156 24.5 -103.910156 Z M 17.71875 0 L 31.28125 0 L 31.28125 -87.503906 L 17.71875 -87.503906 Z M 17.71875 0 "/></g></g></g><g fill="#852d73" fill-opacity="1"><g transform="translate(487.528044, 401.13842)"><g><path d="M 56.222656 -74.378906 L 56.222656 -87.503906 L 32.8125 -87.503906 L 32.8125 -125.570312 L 19.25 -125.570312 L 19.25 -87.503906 L 4.59375 -87.503906 L 4.59375 -74.378906 L 19.25 -74.378906 L 19.25 -22.96875 C 19.25 -9.1875 30.84375 1.75 44.410156 1.75 C 48.785156 1.75 53.597656 0.4375 56.003906 -1.09375 L 56.003906 -11.375 L 45.941406 -11.375 C 38.941406 -11.375 32.8125 -16.625 32.8125 -24.71875 L 32.8125 -74.378906 Z M 56.222656 -74.378906 "/></g></g></g><g fill="#852d73" fill-opacity="1"><g transform="translate(547.643794, 401.13842)"><g><path d="M 45.941406 1.75 C 65.410156 1.75 78.753906 -11.15625 78.753906 -31.5 L 78.753906 -87.503906 L 65.410156 -87.503906 L 65.410156 -33.03125 C 65.410156 -19.90625 57.316406 -11.8125 45.941406 -11.8125 C 34.78125 -11.8125 26.46875 -19.90625 26.46875 -33.03125 L 26.46875 -87.503906 L 13.125 -87.503906 L 13.125 -31.5 C 13.125 -11.15625 26.25 1.75 45.941406 1.75 Z M 45.941406 1.75 "/></g></g></g><g fill="#852d73" fill-opacity="1"><g transform="translate(635.979797, 401.13842)"><g><path d="M 109.820312 -11.375 C 105.003906 -11.375 100.847656 -14.65625 100.847656 -22.75 L 100.847656 -87.503906 L 87.285156 -87.503906 L 87.285156 -76.128906 C 79.191406 -84.222656 67.816406 -89.253906 55.347656 -89.253906 C 30.1875 -89.253906 9.84375 -68.910156 9.84375 -43.753906 C 9.84375 -18.59375 30.1875 1.75 55.347656 1.75 C 68.472656 1.75 80.285156 -4.375 88.597656 -13.34375 C 91.441406 -4.375 98.441406 1.75 108.726562 1.75 C 111.132812 1.75 113.539062 1.09375 115.289062 0 L 115.289062 -11.375 Z M 55.347656 -11.8125 C 37.628906 -11.8125 23.40625 -26.03125 23.40625 -43.753906 C 23.40625 -61.472656 37.628906 -75.691406 55.347656 -75.691406 C 72.847656 -75.691406 87.285156 -61.472656 87.285156 -43.753906 C 87.285156 -26.03125 72.847656 -11.8125 55.347656 -11.8125 Z M 55.347656 -11.8125 "/></g></g></g><g fill="#852d73" fill-opacity="1"><g transform="translate(750.567266, 401.13842)"><g><path d="M 15.96875 0 L 29.53125 0 L 29.53125 -161.007812 L 15.96875 -161.007812 Z M 15.96875 0 "/></g></g></g><g fill="#852d73" fill-opacity="1"><g transform="translate(792.744514, 401.13842)"><g/></g></g><g fill="#852d73" fill-opacity="1"><g transform="translate(842.140871, 401.13842)"><g><path d="M 99.753906 -89.253906 C 89.253906 -89.253906 80.066406 -84.222656 74.160156 -76.128906 C 68.253906 -84.222656 59.066406 -89.253906 49.878906 -89.253906 C 42.003906 -89.253906 34.78125 -85.316406 29.53125 -79.410156 L 29.53125 -87.503906 L 15.96875 -87.503906 L 15.96875 0 L 29.53125 0 L 29.53125 -56.003906 C 29.53125 -66.941406 37.847656 -75.691406 48.566406 -75.691406 C 58.847656 -75.691406 67.378906 -66.941406 67.378906 -56.003906 L 67.378906 0 L 80.941406 0 L 80.941406 -56.003906 C 80.941406 -66.941406 89.472656 -75.691406 99.753906 -75.691406 C 110.257812 -75.691406 118.789062 -66.941406 118.789062 -56.003906 L 118.789062 0 L 132.351562 0 L 132.351562 -56.003906 C 132.351562 -74.378906 117.914062 -89.253906 99.753906 -89.253906 Z M 99.753906 -89.253906 "/></g></g></g><g fill="#852d73" fill-opacity="1"><g transform="translate(985.784983, 401.13842)"><g><path d="M 109.820312 -11.375 C 105.003906 -11.375 100.847656 -14.65625 100.847656 -22.75 L 100.847656 -87.503906 L 87.285156 -87.503906 L 87.285156 -76.128906 C 79.191406 -84.222656 67.816406 -89.253906 55.347656 -89.253906 C 30.1875 -89.253906 9.84375 -68.910156 9.84375 -43.753906 C 9.84375 -18.59375 30.1875 1.75 55.347656 1.75 C 68.472656 1.75 80.285156 -4.375 88.597656 -13.34375 C 91.441406 -4.375 98.441406 1.75 108.726562 1.75 C 111.132812 1.75 113.539062 1.09375 115.289062 0 L 115.289062 -11.375 Z M 55.347656 -11.8125 C 37.628906 -11.8125 23.40625 -26.03125 23.40625 -43.753906 C 23.40625 -61.472656 37.628906 -75.691406 55.347656 -75.691406 C 72.847656 -75.691406 87.285156 -61.472656 87.285156 -43.753906 C 87.285156 -26.03125 72.847656 -11.8125 55.347656 -11.8125 Z M 55.347656 -11.8125 "/></g></g></g><g fill="#852d73" fill-opacity="1"><g transform="translate(1100.372462, 401.13842)"><g><path d="M 58.628906 -89.253906 C 46.160156 -89.253906 36.097656 -83.785156 29.53125 -75.035156 L 29.53125 -87.503906 L 15.96875 -87.503906 L 15.96875 0 L 29.53125 0 L 29.53125 -47.472656 C 29.53125 -63.441406 42.660156 -75.691406 58.628906 -75.691406 C 61.253906 -75.691406 63.441406 -75.472656 65.410156 -74.816406 L 65.410156 -88.597656 C 63.441406 -89.035156 61.253906 -89.253906 58.628906 -89.253906 Z M 58.628906 -89.253906 "/></g></g></g><g fill="#852d73" fill-opacity="1"><g transform="translate(1163.550868, 401.13842)"><g><path d="M 56.222656 -74.378906 L 56.222656 -87.503906 L 32.8125 -87.503906 L 32.8125 -125.570312 L 19.25 -125.570312 L 19.25 -87.503906 L 4.59375 -87.503906 L 4.59375 -74.378906 L 19.25 -74.378906 L 19.25 -22.96875 C 19.25 -9.1875 30.84375 1.75 44.410156 1.75 C 48.785156 1.75 53.597656 0.4375 56.003906 -1.09375 L 56.003906 -11.375 L 45.941406 -11.375 C 38.941406 -11.375 32.8125 -16.625 32.8125 -24.71875 L 32.8125 -74.378906 Z M 56.222656 -74.378906 "/></g></g></g></svg>